<svg aria-hidden="true" style="position: absolute; width: 0; height: 0; overflow: hidden;" version="1.1" xmlns="http://www.w3.org/2000/svg" xmlns:xlink="http://www.w3.org/1999/xlink">
<defs>
<symbol id="icon-email" viewBox="0 0 32 32">
<path d="M26.667 5.333h-21.333c-1.476 0-2.667 1.191-2.667 2.667v16c0 1.458 1.191 2.667 2.667 2.667h21.333c1.458 0 2.667-1.209 2.667-2.667v-16c0-1.476-1.209-2.667-2.667-2.667zM26.133 10.987l-9.44 5.902c-0.2 0.125-0.442 0.2-0.702 0.2s-0.503-0.074-0.708-0.203l0.006 0.003-9.422-5.902c-0.322-0.202-0.533-0.555-0.533-0.957 0-0.001 0-0.002 0-0.003v0c0-0.889 0.96-1.422 1.724-0.96l8.942 5.6 8.924-5.6c0.764-0.462 1.742 0.071 1.742 0.96 0 0.391-0.213 0.747-0.533 0.96z"></path>
</symbol>
<symbol id="icon-phone" viewBox="0 0 32 32">
<path d="M24.871 19.769l-3.271-0.373c-0.782-0.089-1.547 0.178-2.098 0.729l-2.382 2.364c-3.664-1.894-6.575-4.811-8.412-8.372l-0.051-0.108 2.364-2.382c0.569-0.551 0.836-1.316 0.747-2.098l-0.373-3.253c-0.16-1.298-1.262-2.276-2.56-2.276h-2.24c-1.44 0-2.649 1.209-2.56 2.667 0.676 10.987 9.458 19.769 20.444 20.444 1.44 0.089 2.649-1.12 2.649-2.578v-2.222c0.018-1.298-0.96-2.4-2.258-2.542z"></path>
</symbol>
<symbol id="icon-newsletter" viewBox="0 0 32 32">
<path fill="#fff" style="fill: var(--color1, #fff)" d="M32 0l-32 18 10.213 3.787 15.787-14.787-12 16.173v8.827l5.733-6.693 7.267 2.693 5-28z"></path>
</symbol>
<symbol id="icon-smartphone" viewBox="0 0 32 32">
<path d="M23 0h-14c-1.66 0-3 1.34-3 3v26c0 1.64 1.34 3 3 3h14c1.64 0 3-1.36 3-3v-26c0-1.66-1.36-3-3-3zM9 2h14c0.54 0 1 0.44 1 1v21h-16v-21c0-0.56 0.44-1 1-1zM23 30h-14c-0.56 0-1-0.46-1-1v-3h16v3c0 0.54-0.46 1-1 1z"></path>
<path fill="#757575" style="fill: var(--color2, #757575)" d="M10.7 27.46c0.38 0.38 0.38 0.96 0 1.32-0.4 0.38-1.020 0.38-1.42 0-0.38-0.36-0.38-0.94 0-1.32 0.4-0.36 1.020-0.36 1.42 0z"></path>
</symbol>
</defs>
</svg>
